<?xml version="1.0" standalone="no"?>
<!DOCTYPE svg PUBLIC "-//W3C//DTD SVG 20010904//EN"
 "http://www.w3.org/TR/2001/REC-SVG-20010904/DTD/svg10.dtd">
<svg version="1.0" xmlns="http://www.w3.org/2000/svg"
 width="2400.000000pt" height="2400.000000pt" viewBox="0 0 2400.000000 2400.000000"
 preserveAspectRatio="xMidYMid meet">
<metadata>
Created by potrace 1.16, written by Peter Selinger 2001-2019
</metadata>
<g transform="translate(0.000000,2400.000000) scale(0.100000,-0.100000)"
fill="#000000" stroke="none">
<path d="M11820 21650 c-85 -33 -195 -75 -245 -94 -99 -39 -193 -74 -935 -356
-278 -106 -516 -197 -530 -203 -14 -5 -29 -11 -35 -12 -9 -2 -338 -126 -835
-315 -113 -43 -380 -144 -595 -224 -214 -81 -406 -153 -425 -161 -19 -7 -89
-34 -155 -59 -66 -24 -185 -69 -265 -99 -80 -30 -226 -85 -325 -122 -99 -37
-232 -86 -295 -110 -332 -124 -395 -148 -397 -149 -5 -3 -33 -626 -43 -941
-14 -434 -15 -1474 -1 -1895 19 -575 54 -1139 92 -1500 l11 -105 83 -81 c67
-66 153 -141 291 -253 5 -4 39 -29 75 -55 35 -25 71 -52 79 -59 27 -24 213
-144 305 -197 162 -93 477 -238 550 -253 6 -2 15 -5 20 -9 9 -5 80 -26 115
-33 8 -2 28 -8 44 -14 50 -20 237 -63 276 -65 21 0 36 -4 33 -8 -2 -5 4 -9 14
-9 34 -2 78 -8 108 -14 70 -14 350 -35 465 -35 110 0 393 20 475 34 17 3 62
10 100 16 153 24 364 75 563 136 81 26 82 26 82 59 0 19 -7 63 -15 99 -8 36
-14 69 -13 73 1 4 -3 37 -9 73 -14 77 -33 208 -38 253 -1 18 -8 60 -14 94 -6
34 -10 65 -9 70 1 4 -3 49 -10 98 -18 143 -32 266 -37 325 -2 30 -9 102 -14
160 -30 315 -36 462 -36 980 0 526 6 671 36 885 5 39 11 91 13 117 3 26 9 71
15 100 5 29 15 87 22 128 6 41 17 98 24 125 7 28 18 77 25 110 21 105 102 362
145 460 7 17 24 57 38 90 30 72 103 204 164 299 41 63 179 254 192 266 3 3 24
28 46 55 123 156 386 430 575 598 69 62 132 119 140 128 37 40 389 325 551
447 24 18 55 42 69 52 90 68 210 156 240 176 19 13 49 34 67 46 58 43 417 283
433 291 8 4 35 21 60 37 25 16 69 43 98 61 29 17 52 32 50 34 -10 10 -1322
515 -1336 515 -9 -1 -87 -28 -172 -60z"/>
<path d="M14780 20590 c-25 -4 -85 -13 -135 -20 -49 -7 -115 -18 -145 -25 -30
-8 -82 -19 -115 -26 -72 -15 -180 -41 -255 -63 -30 -9 -62 -18 -70 -20 -26 -7
-234 -76 -255 -85 -11 -5 -74 -30 -140 -57 -131 -52 -318 -143 -433 -211 -41
-24 -76 -43 -79 -43 -4 0 -21 -11 -39 -25 -18 -14 -36 -25 -39 -25 -15 0 -54
-38 -47 -45 4 -5 2 -5 -4 -2 -10 6 -22 -1 -90 -48 -39 -26 -156 -116 -170
-130 -6 -6 -33 -28 -61 -48 -56 -43 -323 -312 -368 -371 -17 -21 -40 -50 -53
-65 -13 -14 -37 -46 -55 -71 -17 -25 -39 -54 -49 -64 -10 -11 -20 -28 -24 -38
-3 -10 -9 -18 -14 -18 -5 0 -12 -9 -15 -20 -3 -11 -12 -26 -19 -33 -44 -44
-214 -361 -286 -532 -54 -130 -64 -159 -150 -422 -6 -18 -13 -40 -15 -50 -2
-10 -11 -45 -19 -78 -37 -135 -82 -370 -96 -500 -5 -44 -12 -101 -16 -128 -6
-40 -4 -47 9 -42 8 4 49 -10 91 -29 42 -20 79 -36 82 -36 3 0 39 -16 80 -35
41 -19 76 -35 79 -35 18 0 710 -342 873 -432 67 -38 125 -68 127 -68 2 0 30
-15 62 -34 32 -18 135 -78 228 -132 241 -138 599 -366 755 -479 15 -11 47 -33
71 -50 24 -16 46 -32 49 -36 3 -3 25 -20 50 -37 25 -18 63 -47 86 -65 22 -17
67 -52 100 -76 353 -266 743 -671 939 -976 123 -191 255 -495 326 -755 7 -25
14 -49 15 -55 17 -56 66 -259 70 -289 3 -22 7 -43 10 -47 3 -6 22 -101 38
-193 3 -16 10 -52 15 -80 5 -28 15 -89 21 -136 6 -47 18 -123 25 -170 7 -47
13 -92 13 -100 -1 -8 4 -58 10 -110 13 -106 30 -311 37 -440 14 -259 27 -476
28 -483 3 -12 130 183 232 358 488 833 906 2007 1044 2935 49 336 62 709 62
1817 0 486 -3 893 -5 905 -3 13 -8 239 -12 503 -3 264 -11 664 -18 889 l-11
410 -60 24 c-33 13 -170 66 -305 118 -135 52 -255 99 -268 104 -13 6 -28 7
-34 4 -6 -4 -9 -3 -6 2 6 10 -1567 625 -1592 623 -8 -1 -35 -5 -60 -9z"/>
<path d="M11541 15897 c-1 -21 3 -62 8 -91 6 -28 12 -76 15 -106 3 -30 9 -76
15 -102 6 -27 10 -51 9 -55 -2 -7 3 -37 34 -210 7 -39 15 -60 22 -56 6 4 6 1
-1 -8 -9 -11 -9 -27 2 -69 27 -113 35 -151 35 -175 0 -14 3 -25 6 -25 3 0 31
16 62 37 31 20 82 52 112 71 52 34 274 187 295 205 6 4 24 18 41 30 28 19 217
161 237 177 10 8 -512 267 -553 274 -3 1 -21 9 -40 18 -49 23 -208 88 -215 88
-3 0 -3 -5 1 -12 4 -7 3 -8 -5 -4 -6 4 -9 10 -7 14 2 4 -13 14 -33 23 l-37 16
-3 -40z"/>
<path d="M13454 14770 c-38 -28 -85 -63 -104 -78 -19 -15 -48 -35 -65 -46 -16
-10 -32 -22 -35 -25 -9 -13 -310 -222 -490 -341 -171 -113 -381 -245 -515
-323 -11 -7 -42 -26 -70 -43 -27 -16 -86 -50 -130 -74 -44 -25 -98 -55 -120
-67 -76 -43 -560 -282 -611 -302 -28 -11 -71 -29 -95 -40 -72 -33 -257 -104
-369 -141 -80 -27 -200 -63 -230 -70 -19 -4 -69 -17 -110 -28 -41 -11 -102
-25 -135 -31 -33 -6 -100 -18 -150 -28 -128 -25 -586 -25 -725 0 -52 10 -124
22 -160 28 -68 11 -104 18 -210 43 -191 45 -357 88 -440 116 -30 10 -77 25
-105 33 -27 9 -104 34 -170 57 -107 37 -155 54 -220 81 -11 4 -78 31 -150 59
-140 55 -146 57 -217 89 -26 12 -50 21 -52 21 -3 0 -44 18 -91 40 -47 22 -88
40 -90 40 -7 0 -206 95 -379 181 -88 44 -160 78 -161 77 -3 -3 32 -129 67
-243 107 -356 256 -688 503 -1120 92 -162 338 -536 356 -543 5 -2 9 -8 9 -13
0 -19 171 -246 361 -479 330 -405 711 -796 1059 -1087 192 -161 853 -646 872
-640 4 1 13 -5 20 -14 23 -27 119 -90 129 -84 5 4 8 2 7 -3 -3 -11 103 -83
466 -316 255 -164 1025 -643 1049 -652 16 -6 274 120 455 223 366 207 794 503
1259 871 314 248 1059 880 1049 890 -3 2 1 17 8 31 20 37 99 305 112 381 3 14
7 33 10 42 3 10 7 30 10 45 3 16 9 44 13 63 5 19 14 71 20 115 7 44 17 106 22
137 24 141 38 444 28 628 -10 192 -42 427 -71 535 -11 38 -15 64 -17 93 -1 7
-4 11 -8 9 -5 -3 -9 10 -10 28 -1 18 -12 66 -24 106 -13 41 -23 76 -23 79 -1
5 -5 14 -57 150 -56 148 -186 420 -229 480 -11 15 -20 33 -20 39 0 6 -4 11 -9
11 -5 0 -13 9 -16 20 -4 11 -11 17 -17 14 -7 -4 -8 -2 -4 4 8 13 0 25 -99 167
-135 194 -255 334 -466 541 -153 150 -301 286 -335 307 -7 4 -43 -16 -80 -43z"/>
<path d="M12518 2796 c-59 -16 -89 -36 -125 -83 -25 -32 -28 -45 -28 -107 0
-55 4 -77 20 -98 29 -39 97 -73 195 -98 153 -39 190 -63 190 -127 0 -61 -62
-103 -153 -103 -65 0 -122 19 -182 60 l-45 31 -29 -33 c-26 -30 -28 -35 -15
-49 8 -9 41 -30 72 -47 171 -90 383 -54 438 75 19 44 18 117 -3 160 -22 48
-86 86 -186 113 -128 33 -145 40 -177 67 -53 44 -34 120 36 149 66 27 148 15
227 -36 l47 -29 27 35 27 36 -25 19 c-40 31 -102 58 -158 69 -67 13 -94 12
-153 -4z"/>
<path d="M18288 2796 c-59 -16 -89 -36 -125 -83 -25 -32 -28 -45 -28 -109 0
-67 2 -75 30 -104 40 -43 86 -65 186 -90 152 -39 189 -64 189 -127 0 -63 -59
-103 -153 -103 -66 0 -122 19 -183 61 l-46 31 -28 -33 c-25 -30 -27 -36 -14
-50 29 -32 130 -78 197 -89 189 -33 327 50 327 196 0 100 -58 155 -203 194
-128 33 -145 40 -177 67 -55 46 -30 128 47 154 68 22 161 0 240 -57 20 -14 22
-13 48 20 15 19 24 39 21 45 -12 19 -96 61 -152 76 -69 18 -112 18 -176 1z"/>
<path d="M16630 2786 c-74 -20 -122 -48 -173 -98 -88 -88 -122 -204 -92 -320
63 -249 347 -353 563 -206 23 16 42 32 42 36 0 4 -16 19 -35 35 l-34 27 -43
-30 c-24 -17 -68 -35 -98 -42 -73 -15 -148 6 -209 59 -158 134 -101 392 99
450 70 20 145 7 208 -37 l43 -30 34 27 c19 16 35 31 35 35 0 17 -109 78 -165
93 -70 18 -114 18 -175 1z"/>
<path d="M5230 2446 l0 -346 50 0 50 0 0 243 c1 211 2 240 15 223 8 -10 63
-108 122 -217 59 -109 110 -199 113 -199 3 0 59 100 125 221 l120 220 3 -246
2 -245 50 0 50 0 0 346 0 345 -52 -3 -52 -3 -120 -222 c-67 -122 -123 -222
-126 -222 -3 0 -60 100 -126 222 l-121 222 -52 3 -51 3 0 -345z"/>
<path d="M6477 2593 c-47 -109 -115 -264 -151 -345 l-65 -148 56 0 55 0 31 70
31 70 185 0 186 0 29 -70 30 -70 54 0 c47 0 53 2 48 18 -4 9 -71 164 -149 344
l-142 328 -56 0 -56 0 -86 -197z m211 -88 c34 -79 65 -151 68 -160 5 -13 -13
-15 -135 -15 -78 0 -141 3 -141 8 0 13 132 312 139 312 3 0 34 -65 69 -145z"/>
<path d="M7280 2446 l0 -346 50 0 50 0 0 120 0 120 83 0 82 0 85 -120 85 -119
58 -1 58 0 -22 33 c-13 17 -52 71 -86 119 -35 48 -63 91 -63 96 0 4 16 14 35
21 112 40 167 175 116 286 -23 50 -53 78 -116 107 -45 21 -67 23 -232 26
l-183 4 0 -346z m345 243 c21 -6 54 -26 72 -44 28 -28 33 -40 33 -80 0 -40 -5
-52 -33 -80 -43 -43 -90 -55 -214 -55 l-103 0 0 135 0 135 103 0 c56 0 120 -5
142 -11z"/>
<path d="M8160 2445 l0 -345 50 0 50 0 0 345 0 345 -50 0 -50 0 0 -345z"/>
<path d="M8590 2745 l0 -45 115 0 115 0 0 -300 0 -300 50 0 50 0 0 300 0 300
115 0 115 0 0 45 0 45 -280 0 -280 0 0 -45z"/>
<path d="M9480 2445 l0 -345 50 0 50 0 0 345 0 345 -50 0 -50 0 0 -345z"/>
<path d="M9950 2446 l0 -346 50 0 50 0 0 243 c1 211 2 240 15 223 8 -10 63
-108 122 -217 59 -109 110 -199 113 -199 3 0 59 100 125 221 l120 220 3 -246
2 -245 50 0 50 0 0 346 0 345 -52 -3 -52 -3 -120 -222 c-67 -122 -123 -222
-126 -222 -3 0 -60 100 -126 222 l-121 222 -52 3 -51 3 0 -345z"/>
<path d="M11020 2445 l0 -345 255 0 255 0 0 45 0 45 -205 0 -205 0 0 110 0
110 185 0 185 0 0 45 0 45 -185 0 -185 0 0 100 0 100 205 0 205 0 0 45 0 45
-255 0 -255 0 0 -345z"/>
<path d="M13210 2445 l0 -345 255 0 255 0 0 45 0 45 -205 0 -205 0 0 110 0
110 185 0 185 0 0 45 0 45 -185 0 -185 0 0 100 0 100 205 0 205 0 0 45 0 45
-255 0 -255 0 0 -345z"/>
<path d="M14060 2446 l0 -346 50 0 50 0 0 120 0 120 83 0 83 0 84 -120 85
-119 58 -1 58 0 -22 33 c-13 17 -52 71 -86 119 -35 48 -63 92 -63 97 0 5 13
12 28 16 41 9 102 63 123 109 34 75 19 177 -34 234 -12 13 -44 36 -72 50 -48
25 -58 27 -237 30 l-188 4 0 -346z m345 243 c21 -6 54 -26 72 -44 28 -28 33
-40 33 -80 0 -40 -5 -52 -33 -80 -43 -43 -90 -55 -214 -55 l-103 0 0 135 0
135 103 0 c56 0 120 -5 142 -11z"/>
<path d="M14956 2643 c36 -81 104 -237 151 -345 l86 -198 56 0 56 0 142 328
c78 180 145 335 149 345 5 15 -1 17 -48 17 l-53 0 -120 -275 c-66 -151 -122
-275 -126 -275 -3 0 -60 123 -125 273 l-119 272 -57 3 -57 3 65 -148z"/>
<path d="M15920 2445 l0 -345 50 0 50 0 0 345 0 345 -50 0 -50 0 0 -345z"/>
<path d="M17290 2445 l0 -345 255 0 255 0 0 45 0 45 -205 0 -205 0 0 110 0
110 185 0 185 0 0 45 0 45 -185 0 -185 0 0 100 0 100 205 0 205 0 0 45 0 45
-255 0 -255 0 0 -345z"/>
</g>
</svg>
