<?xml version="1.0" standalone="no"?>
<!DOCTYPE svg PUBLIC "-//W3C//DTD SVG 20010904//EN"
 "http://www.w3.org/TR/2001/REC-SVG-20010904/DTD/svg10.dtd">
<svg version="1.0" xmlns="http://www.w3.org/2000/svg"
 width="1200.000000pt" height="1200.000000pt" viewBox="0 0 1200.000000 1200.000000"
 preserveAspectRatio="xMidYMid meet">
<metadata>
Created by potrace 1.16, written by Peter Selinger 2001-2019
</metadata>
<g transform="translate(0.000000,1200.000000) scale(0.100000,-0.100000)"
fill="#000000" stroke="none">
<path d="M5372 10300 c-116 -25 -214 -96 -259 -188 -25 -52 -28 -67 -28 -167
0 -100 2 -115 27 -161 38 -71 112 -135 221 -187 94 -45 120 -65 131 -104 5
-17 1 -29 -18 -48 -47 -47 -173 -26 -289 48 -30 20 -58 33 -61 30 -3 -4 -6
-75 -6 -159 l0 -153 30 -16 c85 -44 309 -60 425 -30 178 47 270 166 269 350
-1 153 -72 246 -262 344 -108 55 -147 91 -136 125 22 68 147 72 277 8 44 -22
60 -26 67 -16 7 7 9 67 8 150 l-3 139 -65 18 c-76 20 -265 30 -328 17z"/>
<path d="M3036 10282 c-2 -4 48 -257 113 -562 l117 -555 175 0 174 0 77 325
c42 179 77 327 78 330 1 3 34 -143 74 -325 l72 -330 159 -3 c87 -1 162 1 166
5 8 9 249 1078 249 1106 0 15 -14 17 -153 17 l-153 0 -28 -212 c-52 -404 -59
-448 -63 -444 -3 3 -33 150 -67 328 l-62 323 -170 3 -170 2 -74 -317 c-40
-175 -76 -327 -80 -337 -6 -18 -7 -18 -12 5 -4 13 -23 165 -44 337 l-38 312
-168 0 c-92 0 -169 -4 -172 -8z"/>
<path d="M4612 9728 l3 -563 150 0 150 0 3 563 2 562 -155 0 -155 0 2 -562z"/>
<path d="M5942 9728 l3 -563 320 0 320 0 0 140 0 140 -164 5 -164 5 -1 65 -1
65 148 3 148 3 -3 137 -3 137 -145 5 c-80 3 -144 8 -142 13 1 4 2 34 2 67 l0
60 155 0 156 0 -3 138 -3 137 -313 3 -312 2 2 -562z"/>
<path d="M7314 10276 c-3 -9 -4 -179 -2 -378 4 -333 7 -370 26 -442 38 -140
99 -217 211 -270 58 -27 79 -31 172 -34 59 -2 130 1 158 7 122 26 212 97 261
204 50 111 55 160 55 557 l0 365 -155 0 -155 0 -5 -365 c-4 -314 -7 -369 -21
-395 -26 -47 -55 -67 -97 -69 -49 -1 -84 22 -108 71 -17 35 -19 70 -24 398
l-5 360 -153 3 c-128 2 -153 0 -158 -12z"/>
<path d="M8385 10278 c-3 -7 -4 -260 -3 -563 l3 -550 155 0 155 0 3 178 2 177
78 0 c182 0 323 81 389 224 26 56 28 70 28 181 0 116 -1 123 -34 189 -37 76
-85 117 -174 150 -45 17 -86 20 -324 24 -221 3 -274 1 -278 -10z m421 -263
c44 -18 68 -71 61 -133 -7 -64 -40 -94 -111 -100 l-56 -4 0 126 0 126 35 0
c20 0 51 -7 71 -15z"/>
<path d="M6734 9697 c-2 -7 -3 -60 -2 -118 l3 -104 195 0 195 0 0 115 0 115
-193 3 c-153 2 -194 0 -198 -11z"/>
<path d="M4186 9080 c-60 -23 -112 -71 -137 -125 -28 -60 -25 -166 5 -231 27
-59 65 -91 168 -142 70 -35 73 -39 73 -72 l0 -35 -52 -3 c-54 -3 -140 25 -164
54 -6 8 -18 14 -25 14 -11 0 -14 -25 -14 -119 l0 -118 63 -18 c89 -27 224 -24
299 4 126 48 187 183 147 325 -15 54 -89 123 -182 170 -89 44 -108 67 -80 98
15 17 27 20 78 15 34 -2 80 -14 104 -26 26 -14 47 -19 53 -13 5 5 7 56 6 113
l-3 104 -50 11 c-83 20 -232 16 -289 -6z"/>
<path d="M4873 9081 c-142 -49 -228 -165 -253 -341 -29 -207 59 -389 219 -451
72 -28 217 -31 304 -5 l57 17 0 109 c0 60 -4 111 -9 115 -6 3 -37 -4 -70 -15
-78 -26 -118 -25 -171 3 -108 57 -124 236 -29 322 48 44 104 53 185 31 97 -27
89 -35 92 96 l3 116 -51 11 c-79 17 -217 13 -277 -8z"/>
<path d="M6374 9088 c-5 -7 -35 -26 -67 -42 -102 -51 -171 -162 -186 -302 -23
-199 53 -366 195 -431 30 -13 56 -28 59 -32 10 -16 96 -22 153 -11 117 24 200
91 253 204 103 222 28 506 -159 598 -57 28 -234 40 -248 16z m131 -220 c14 -6
36 -28 48 -47 19 -31 22 -50 22 -136 0 -86 -3 -105 -22 -136 -23 -36 -59 -59
-91 -59 -34 0 -101 53 -114 90 -26 75 -7 250 28 250 8 0 14 5 14 10 0 11 55
39 77 40 7 0 24 -5 38 -12z"/>
<path d="M7160 9091 c-114 -35 -202 -126 -239 -246 -74 -238 6 -467 192 -551
87 -39 196 -40 279 -2 155 71 238 228 225 428 -16 241 -147 381 -355 379 -42
0 -88 -4 -102 -8z m158 -234 c52 -43 71 -210 32 -294 -47 -104 -168 -88 -200
26 -13 48 -13 150 1 192 13 39 45 77 74 90 24 10 73 3 93 -14z"/>
<path d="M5317 9083 c-4 -3 -7 -186 -7 -405 l0 -398 115 0 115 0 0 145 0 145
110 0 109 0 3 -142 3 -143 115 0 115 0 0 400 0 400 -115 0 -115 0 -3 -142 -3
-143 -109 0 -110 0 0 145 0 145 -108 0 c-60 0 -112 -3 -115 -7z"/>
<path d="M7725 9078 c-3 -7 -4 -189 -3 -403 l3 -390 235 0 235 0 0 100 0 100
-117 3 -118 3 -2 297 -3 297 -113 3 c-84 2 -114 -1 -117 -10z"/>
<path d="M6000 8213 c-959 -55 -1779 -767 -2056 -1786 -44 -160 -61 -243 -69
-330 -4 -37 -10 -93 -15 -124 -12 -89 -12 -385 0 -503 15 -152 48 -341 77
-446 l25 -91 -25 -39 c-25 -38 -43 -84 -34 -84 3 0 17 20 32 45 28 49 39 51
50 8 16 -67 102 -269 166 -393 537 -1036 1660 -1506 2685 -1125 655 244 1153
786 1410 1535 4 12 9 9 24 -10 l19 -25 -6 25 c-3 14 -10 30 -15 37 -5 7 3 56
21 130 60 239 81 418 82 692 0 400 -72 736 -239 1109 -182 408 -499 785 -862
1025 -219 145 -499 261 -753 311 -117 24 -352 48 -426 44 -20 -1 -61 -3 -91
-5z m-66 -376 c15 -19 26 -38 26 -44 0 -8 55 -166 79 -228 16 -40 30 -91 40
-148 20 -109 -34 -177 -140 -177 -81 0 -116 28 -171 140 -33 64 -33 66 -32
205 0 155 13 202 69 258 42 41 95 38 129 -6z m-786 -483 c57 -31 140 -86 254
-169 240 -173 341 -222 479 -232 50 -3 114 -1 154 6 74 13 284 81 350 113 22
10 76 34 120 53 44 18 105 44 135 58 30 13 78 32 105 42 28 10 68 25 90 35 61
27 204 68 260 76 47 5 52 4 64 -19 42 -79 -76 -144 -349 -192 -152 -26 -279
-63 -322 -93 -49 -33 -71 -73 -97 -177 -35 -140 -42 -187 -48 -310 -4 -99 -1
-136 15 -210 21 -89 75 -214 145 -328 33 -54 63 -135 88 -236 l11 -44 63 129
c68 138 102 261 92 335 -16 122 -115 207 -240 209 -100 0 -172 35 -151 73 24
40 68 87 83 87 10 0 57 -24 104 -54 160 -100 188 -111 302 -111 107 0 154 10
325 72 52 19 143 48 201 66 l106 31 7 96 c13 183 42 254 99 243 34 -7 57 -39
90 -128 89 -243 90 -577 2 -997 -44 -213 -135 -456 -230 -613 -66 -109 -123
-174 -213 -242 -42 -32 -81 -62 -87 -66 -5 -4 -53 -39 -105 -78 -239 -176
-292 -219 -368 -293 -210 -204 -282 -399 -282 -768 l0 -178 -29 0 c-38 0 -41
12 -41 201 0 231 28 376 100 520 91 182 212 310 459 489 100 73 345 261 386
297 30 26 116 141 141 188 86 160 173 409 213 612 47 233 62 526 37 718 -11
86 -60 245 -75 245 -12 0 -31 -104 -31 -169 l0 -63 29 5 c31 6 61 -16 61 -44
0 -17 -46 -63 -72 -72 -17 -6 -18 -28 -18 -274 0 -286 -8 -389 -39 -548 -21
-105 -64 -239 -86 -265 -7 -8 -20 -28 -28 -45 -54 -104 -266 -252 -444 -310
-61 -20 -78 -16 -95 21 -11 24 -10 28 12 46 95 75 147 130 203 216 61 95 137
249 137 279 0 8 6 29 14 46 39 88 62 344 34 373 -18 17 -41 -14 -97 -129 -34
-68 -61 -126 -61 -130 0 -3 -27 -50 -59 -104 -84 -138 -207 -256 -331 -316
-49 -25 -100 -57 -111 -71 -12 -15 -55 -49 -95 -75 -182 -117 -280 -362 -329
-816 -10 -87 -22 -153 -28 -157 -19 -12 -54 -9 -64 5 -6 6 -18 80 -27 162 -10
83 -22 170 -27 195 -46 232 -79 333 -144 443 -80 134 -179 220 -341 298 -99
47 -164 96 -234 174 -19 21 -42 46 -50 55 -36 37 -96 141 -170 294 -44 90 -86
166 -95 170 -41 15 -48 -103 -15 -264 12 -58 26 -112 30 -120 4 -8 10 -29 13
-47 9 -44 89 -205 143 -285 44 -65 114 -137 184 -189 32 -24 34 -29 25 -55
-14 -39 -32 -40 -123 -11 -221 72 -409 237 -475 415 -77 207 -88 292 -94 739
-4 263 -8 375 -17 382 -6 5 -27 12 -47 16 -48 9 -50 2 -56 -204 -13 -407 101
-882 285 -1186 73 -120 113 -159 344 -330 15 -11 56 -40 90 -64 394 -278 545
-473 607 -782 18 -89 21 -134 19 -290 l-3 -184 -30 0 -29 0 -1 190 c-1 158 -5
205 -22 280 -26 106 -68 221 -88 242 -8 8 -15 20 -15 27 0 7 -9 21 -20 31 -11
10 -20 22 -20 28 0 13 -76 102 -132 155 -39 36 -152 127 -233 186 -11 9 -33
26 -50 39 -16 13 -53 39 -81 58 -28 19 -66 46 -85 62 -19 15 -68 54 -109 87
-41 33 -96 85 -121 115 -78 90 -181 287 -224 425 -9 30 -23 69 -30 85 -26 58
-49 159 -92 395 -23 126 -26 172 -26 350 0 257 6 384 20 402 11 14 63 124 63
134 0 3 9 19 21 35 15 22 28 29 53 29 48 0 63 -24 75 -115 5 -44 12 -87 16
-95 3 -9 62 -34 138 -60 72 -24 143 -50 157 -57 14 -7 32 -13 40 -13 8 0 33
-7 55 -14 22 -8 72 -17 110 -21 89 -8 206 20 279 68 122 80 173 107 189 101
15 -5 77 -89 77 -104 0 -24 -33 -38 -123 -48 -109 -13 -147 -26 -195 -67 -79
-67 -98 -182 -53 -325 28 -86 128 -300 141 -300 5 0 12 9 15 20 3 11 11 20 16
20 5 0 9 9 9 21 0 11 25 73 56 137 118 246 137 299 154 421 29 209 -59 368
-267 487 -48 28 -126 63 -173 79 -172 57 -243 93 -300 150 -47 48 -53 59 -54
97 -1 51 21 108 41 108 8 0 45 -16 81 -36z m146 -373 c18 -7 56 -108 91 -243
17 -65 10 -98 -30 -124 -32 -21 -84 -12 -112 19 -64 69 -84 205 -44 293 26 56
52 72 95 55z m1643 -150 c52 -49 58 -224 9 -297 -45 -68 -103 -82 -155 -38
-19 15 -31 35 -31 50 0 35 86 286 102 295 22 14 53 10 75 -10z"/>
<path d="M4767 6554 c-14 -14 -8 -625 8 -751 36 -288 86 -409 220 -534 48 -45
181 -126 191 -117 2 3 -13 27 -34 54 -107 137 -179 298 -227 509 -49 215 -22
375 63 375 56 0 113 -77 189 -257 7 -18 17 -33 22 -33 5 0 23 19 40 42 27 36
31 50 31 105 0 108 -50 230 -166 404 -100 150 -134 178 -235 193 -24 4 -55 9
-69 12 -14 3 -29 2 -33 -2z"/>
<path d="M7385 6429 c-111 -16 -202 -49 -232 -83 -38 -43 -113 -144 -113 -152
0 -4 -6 -15 -14 -23 -27 -32 -87 -152 -111 -225 -40 -118 -34 -197 20 -261 33
-38 35 -39 48 -20 16 22 124 234 157 307 21 48 80 117 103 119 51 5 80 -18 96
-76 31 -112 -9 -359 -88 -545 -36 -85 -96 -190 -153 -267 -21 -29 -35 -53 -30
-53 20 0 152 88 201 134 60 58 119 144 133 196 6 19 16 49 23 65 15 33 38 147
55 270 6 47 10 190 8 350 -3 308 8 280 -103 264z"/>
<path d="M5979 6021 c-57 -38 -117 -124 -151 -216 -14 -38 -38 -102 -52 -140
-14 -39 -26 -77 -26 -84 0 -8 -6 -22 -13 -30 -8 -9 -19 -35 -26 -58 -6 -23
-27 -62 -45 -86 l-34 -44 46 -29 c165 -103 289 -265 356 -466 37 -109 66 -224
66 -261 0 -17 7 -50 14 -72 16 -46 11 -59 45 115 11 58 27 125 36 149 8 24 15
50 15 58 0 24 111 243 137 271 44 46 53 85 60 235 5 122 3 156 -15 238 -56
255 -184 436 -317 447 -43 3 -56 -1 -96 -27z"/>
<path d="M5359 5793 c-45 -50 -89 -112 -89 -123 0 -7 14 -29 30 -50 17 -21 30
-42 30 -47 0 -4 9 -14 20 -20 17 -11 22 -9 44 20 47 62 57 121 32 202 -14 49
-34 54 -67 18z"/>
<path d="M6743 5663 c-15 -22 -18 -47 -17 -131 1 -56 4 -105 7 -109 8 -7 63
31 114 80 41 39 41 40 25 66 -9 14 -23 32 -30 40 -7 8 -20 25 -29 38 -28 42
-50 47 -70 16z"/>
<path d="M10816 6004 c-25 -81 -97 -224 -150 -298 -135 -189 -355 -326 -575
-358 -79 -12 -105 -10 -328 27 -40 6 -73 10 -73 8 0 -7 121 -62 169 -77 90
-26 277 -18 434 20 163 39 360 233 457 450 35 78 93 259 88 275 -2 6 -12 -15
-22 -47z"/>
<path d="M1350 6008 c0 -30 67 -223 105 -299 111 -219 290 -386 454 -423 127
-28 302 -40 373 -26 55 10 223 78 215 86 -1 1 -61 -6 -132 -17 -232 -36 -375
-16 -543 77 -206 113 -347 286 -443 544 -15 41 -28 67 -29 58z"/>
<path d="M11225 5472 c-247 -216 -583 -418 -826 -497 -155 -50 -250 -61 -406
-48 -70 6 -137 15 -148 19 -13 5 -17 4 -10 -3 6 -6 46 -23 90 -39 72 -26 91
-29 195 -28 68 1 169 11 245 24 118 20 141 28 247 82 198 100 419 257 611 433
68 62 75 71 59 81 -14 9 -25 5 -57 -24z"/>
<path d="M910 5460 c-18 -11 25 -58 155 -167 179 -151 344 -262 524 -353 138
-69 255 -93 471 -94 153 -1 156 0 230 31 83 35 82 37 -5 23 -106 -18 -294 -13
-387 9 -249 59 -558 224 -829 443 -56 46 -112 91 -123 100 -15 11 -27 14 -36
8z"/>
<path d="M11306 4915 c4 -8 1 -15 -6 -15 -7 0 -164 -60 -349 -134 -458 -182
-560 -214 -736 -231 -78 -7 -212 8 -278 31 -55 20 -220 64 -224 61 -1 -2 37
-24 85 -50 139 -73 228 -91 457 -91 l190 -1 100 39 c55 21 235 98 400 171 165
73 325 143 355 156 30 12 57 24 59 25 2 2 -4 15 -13 29 -18 27 -49 35 -40 10z"/>
<path d="M842 4867 l-22 -23 57 -24 c32 -13 184 -79 338 -148 502 -223 555
-239 762 -229 195 10 318 42 438 112 54 33 57 35 25 29 -19 -3 -84 -22 -145
-41 -207 -66 -405 -56 -663 35 -202 72 -752 295 -746 303 11 19 -24 8 -44 -14z"/>
<path d="M9330 4419 c112 -99 287 -201 452 -265 239 -93 449 -105 738 -42 100
21 570 145 577 152 2 2 1 15 -3 30 -5 21 -12 26 -39 26 -18 0 -35 -4 -37 -10
-3 -10 -334 -88 -513 -121 -148 -27 -318 -35 -429 -20 -100 14 -243 57 -351
105 -39 18 -114 47 -167 65 -52 17 -135 52 -184 76 l-89 44 45 -40z"/>
<path d="M2805 4376 c-44 -23 -119 -54 -165 -70 -47 -16 -132 -49 -189 -73
-215 -91 -381 -120 -589 -102 -132 11 -112 8 -429 77 -173 37 -263 61 -263 70
0 7 -13 12 -30 12 -29 0 -50 -22 -50 -52 0 -13 407 -126 610 -169 139 -30 380
-37 491 -15 226 46 498 179 654 320 28 25 48 45 45 44 -3 -1 -41 -20 -85 -42z"/>
<path d="M8715 4124 c48 -77 135 -147 305 -246 147 -86 204 -112 372 -172 208
-74 343 -109 587 -151 112 -19 215 -38 229 -42 18 -4 23 -2 20 8 -3 8 -25 17
-49 21 -402 61 -738 161 -1044 313 -156 77 -232 126 -361 234 -58 49 -73 58
-59 35z"/>
<path d="M9075 4104 c141 -132 456 -282 701 -333 89 -18 214 -30 429 -41 116
-6 223 -13 239 -16 18 -4 26 -2 22 4 -8 14 -59 20 -306 37 -309 22 -398 39
-609 114 -157 56 -259 107 -401 200 -115 75 -121 78 -75 35z"/>
<path d="M3055 4044 c-138 -94 -273 -161 -442 -218 -216 -73 -286 -85 -645
-111 -114 -9 -218 -20 -230 -25 -21 -8 -21 -9 -3 -9 51 -2 519 30 589 40 99
13 250 52 336 86 100 40 276 130 349 179 60 40 173 134 161 133 -3 0 -54 -33
-115 -75z"/>
<path d="M3405 4047 c-154 -135 -349 -243 -620 -345 -222 -83 -344 -116 -602
-164 -163 -30 -223 -45 -223 -55 0 -8 4 -12 8 -9 5 3 111 23 238 45 126 23
270 52 319 65 146 40 414 135 498 178 96 48 275 156 340 206 43 33 134 139
125 146 -1 2 -39 -28 -83 -67z"/>
<path d="M6094 2511 c-10 -10 -3 -31 11 -31 8 0 15 -4 15 -8 0 -5 -25 -81 -55
-171 -30 -90 -55 -173 -55 -186 0 -71 105 -72 178 -3 62 60 99 168 73 217 -16
29 -62 27 -100 -5 -17 -14 -31 -24 -31 -22 0 2 15 39 34 83 55 132 55 123 -9
127 -31 1 -59 1 -61 -1z"/>
<path d="M6655 2512 c-56 -4 -83 -19 -47 -28 12 -4 22 -11 22 -16 0 -5 -25
-93 -56 -194 -51 -168 -55 -187 -41 -201 13 -13 21 -14 48 -4 34 12 79 48 79
63 0 13 -22 9 -42 -9 -15 -13 -18 -14 -18 -1 0 12 62 219 105 345 7 24 11 44
7 45 -4 2 -29 2 -57 0z"/>
<path d="M5720 2495 c0 -8 7 -15 15 -15 23 0 19 -17 -41 -211 -44 -143 -53
-183 -43 -195 6 -8 16 -14 22 -14 22 0 95 41 101 57 10 24 1 26 -28 8 -14 -10
-26 -13 -26 -7 0 9 103 342 117 380 4 9 -11 12 -56 12 -48 0 -61 -3 -61 -15z"/>
<path d="M7256 2432 c-3 -6 -19 -13 -35 -17 -22 -5 -31 -14 -40 -45 -9 -31
-17 -39 -38 -42 -31 -4 -44 -28 -15 -28 10 0 21 -2 24 -5 3 -3 -8 -51 -25
-106 -28 -91 -29 -101 -15 -115 21 -22 65 -11 109 26 25 21 31 31 23 40 -8 8
-14 7 -24 -5 -12 -15 -40 -21 -40 -9 0 3 12 44 26 90 24 81 26 84 56 84 23 0
29 -4 24 -16 -12 -30 5 -34 29 -6 31 35 31 25 -4 -92 -16 -54 -27 -105 -24
-113 11 -29 99 5 127 50 17 27 -4 34 -24 7 -32 -43 -32 -15 0 89 18 56 29 108
26 116 -10 26 -75 13 -99 -19 -6 -8 -10 -7 -14 2 -2 6 -16 12 -29 12 -28 0
-29 8 -9 57 9 22 12 40 6 46 -5 5 -11 5 -15 -1z"/>
<path d="M7643 2344 c-19 -26 -20 -26 -51 -10 -66 34 -142 11 -142 -43 0 -40
25 -60 48 -37 14 14 15 20 4 37 -20 31 -9 33 22 4 15 -14 34 -25 42 -25 26 0
14 -18 -60 -87 -70 -66 -80 -80 -77 -110 2 -21 39 -15 46 7 8 26 21 25 57 -5
38 -32 94 -34 132 -4 20 16 26 29 26 60 0 44 -20 60 -46 38 -15 -12 -15 -24 1
-61 12 -29 -18 -22 -50 12 -16 17 -35 30 -42 30 -24 0 -14 15 60 90 79 80 92
101 74 119 -16 16 -23 14 -44 -15z"/>
<path d="M4206 2351 c-3 -5 -23 -7 -44 -4 -33 4 -44 1 -76 -27 -44 -39 -72
-90 -87 -160 -9 -43 -8 -55 6 -76 22 -34 59 -26 102 23 l33 36 -3 -39 c-2 -33
1 -39 20 -42 24 -4 93 51 93 74 0 20 -17 17 -29 -3 -24 -44 -20 5 8 101 17 58
31 110 31 116 0 12 -47 13 -54 1z"/>
<path d="M6476 2351 c-3 -5 -24 -7 -45 -4 -54 7 -92 -22 -130 -100 -41 -84
-49 -135 -24 -166 25 -30 55 -22 100 27 l32 35 -6 -36 c-4 -28 -2 -38 10 -43
22 -8 66 16 90 48 25 33 15 49 -13 23 -27 -25 -26 -12 9 110 16 55 27 103 25
107 -7 11 -42 10 -48 -1z"/>
<path d="M3831 2320 c-42 -43 -42 -72 1 -33 10 9 21 13 25 9 4 -3 -5 -53 -20
-110 -15 -57 -27 -107 -27 -110 0 -3 15 -6 33 -6 31 0 33 2 54 73 12 39 32 87
43 105 18 29 24 33 50 27 23 -5 31 -2 40 14 14 27 -3 61 -30 61 -21 0 -60 -33
-60 -50 0 -5 -4 -10 -8 -10 -4 0 -8 12 -7 28 0 23 -4 27 -31 30 -24 2 -39 -4
-63 -28z"/>
<path d="M4298 2310 c-43 -42 -44 -79 -2 -39 30 28 30 18 -2 -90 -37 -122 -24
-144 60 -102 37 19 38 19 57 0 23 -23 48 -24 94 -5 26 11 36 24 46 55 11 37
10 45 -14 92 -26 50 -35 99 -19 99 5 0 14 -12 21 -26 12 -28 28 -28 45 -1 17
26 -5 51 -48 55 -29 3 -42 -2 -66 -27 -37 -36 -38 -64 -4 -126 25 -48 29 -95
8 -102 -6 -2 -16 8 -22 21 -14 32 -51 37 -79 12 -23 -19 -23 -19 -23 1 0 11
11 53 25 93 14 40 25 86 25 102 0 25 -4 28 -31 28 -23 0 -42 -10 -71 -40z"/>
<path d="M4628 2310 c-24 -24 -37 -44 -32 -51 5 -9 13 -5 26 11 31 38 33 14 4
-77 -37 -125 -34 -141 24 -128 36 8 94 60 85 75 -5 8 -15 4 -31 -11 -23 -21
-24 -21 -24 -3 0 10 11 54 25 97 14 43 25 89 25 102 0 21 -5 25 -31 25 -23 0
-42 -10 -71 -40z"/>
<path d="M4785 2319 c-19 -17 -35 -35 -35 -40 0 -14 22 -10 42 8 24 22 23 13
-12 -97 -38 -120 -38 -122 2 -118 27 3 33 9 47 49 28 80 100 183 117 167 3 -3
-6 -44 -20 -90 -30 -96 -32 -126 -11 -134 18 -7 85 25 99 48 15 25 -1 34 -24
13 -25 -23 -25 -17 5 78 28 87 31 117 13 135 -23 23 -57 13 -98 -29 -40 -41
-49 -44 -30 -9 29 55 -39 68 -95 19z"/>
<path d="M5118 2334 c-53 -28 -76 -123 -42 -172 15 -21 14 -24 -7 -41 -20 -16
-22 -22 -12 -43 10 -22 7 -26 -28 -46 -62 -36 -65 -97 -6 -133 44 -26 140 -26
185 1 74 45 63 110 -30 166 -66 41 -73 64 -20 75 57 12 102 71 102 135 0 22 2
25 15 14 21 -18 47 -5 43 22 -3 20 -9 23 -45 23 -22 0 -45 3 -49 8 -12 12 -77
7 -106 -9z"/>
<path d="M5481 2337 c-61 -31 -88 -130 -48 -174 16 -19 16 -21 -4 -39 -15 -13
-19 -26 -15 -45 4 -22 -1 -30 -32 -50 -32 -21 -37 -29 -37 -64 0 -54 44 -85
122 -85 98 0 148 36 141 103 -3 31 -12 40 -113 110 -21 15 -24 22 -14 33 6 8
22 14 34 14 12 0 34 9 48 20 27 22 63 102 53 119 -4 5 -2 12 3 15 5 4 12 2 16
-4 11 -17 33 -11 41 12 9 30 -19 51 -51 36 -16 -7 -29 -7 -43 1 -27 14 -71 14
-101 -2z"/>
<path d="M5845 2317 c-39 -39 -59 -103 -52 -167 10 -90 98 -118 159 -51 50 56
65 177 27 225 -31 40 -90 37 -134 -7z"/>
<path d="M6860 2334 c-36 -23 -68 -75 -84 -138 -18 -67 -9 -106 27 -126 25
-14 30 -13 64 5 38 21 62 49 51 60 -3 4 -18 -1 -32 -10 -14 -9 -30 -14 -36
-10 -15 9 -12 75 6 131 22 65 31 73 50 46 8 -12 22 -22 30 -22 8 0 14 -5 14
-12 0 -6 14 1 31 18 36 33 37 40 -7 -104 -31 -103 -27 -119 25 -107 37 8 91
50 91 71 0 20 -10 18 -37 -8 -30 -28 -29 -20 7 98 17 54 28 104 26 111 -8 21
-59 15 -91 -11 l-29 -24 -11 22 c-13 27 -61 32 -95 10z"/>
<path d="M7830 2342 c-42 -19 -72 -49 -95 -95 -45 -91 -27 -187 35 -187 50 0
130 55 115 79 -4 7 -17 3 -36 -11 -37 -27 -64 -16 -64 27 0 24 6 30 42 42 23
8 54 28 67 44 14 16 30 29 37 29 7 0 21 7 31 17 26 23 24 4 -12 -102 -16 -49
-30 -95 -30 -102 0 -8 13 -13 35 -13 27 0 35 4 35 19 0 48 107 217 126 199 3
-4 -7 -49 -22 -101 -15 -52 -24 -102 -21 -111 9 -22 35 -20 76 5 32 19 34 19
46 2 10 -13 27 -18 60 -18 39 0 51 5 71 28 32 37 31 89 -1 142 -14 22 -25 48
-25 57 0 25 21 33 27 10 6 -24 32 -37 45 -24 5 5 8 22 6 38 -2 24 -8 30 -32
32 -44 5 -74 -6 -92 -34 -23 -35 -20 -73 11 -133 21 -42 23 -55 14 -73 -11
-21 -11 -21 -33 6 -23 29 -60 32 -88 8 -23 -19 -23 -18 8 78 14 45 24 95 22
113 -3 28 -7 32 -35 35 -26 3 -38 -4 -73 -40 -38 -40 -40 -41 -30 -14 6 16 9
35 6 43 -10 24 -63 15 -101 -18 -30 -27 -35 -28 -35 -12 0 37 -46 55 -90 35z"/>
<path d="M8505 2250 l0 -50 728 0 727 0 0 50 0 50 -727 0 -728 0 0 -50z"/>
<path d="M1898 2220 l4 -50 835 2 836 3 1 48 1 47 -840 0 -840 0 3 -50z"/>
</g>
</svg>
